<?xml version="1.0" standalone="no"?>
<!DOCTYPE svg PUBLIC "-//W3C//DTD SVG 20010904//EN"
 "http://www.w3.org/TR/2001/REC-SVG-20010904/DTD/svg10.dtd">
<svg version="1.0" xmlns="http://www.w3.org/2000/svg"
 width="150.000000pt" height="150.000000pt" viewBox="0 0 150.000000 150.000000"
 preserveAspectRatio="xMidYMid meet">
<metadata>
Created by potrace 1.14, written by Peter Selinger 2001-2017
</metadata>
<g transform="translate(0.000000,150.000000) scale(0.100000,-0.100000)"
fill="#000000" stroke="none">
<path d="M0 1416 c0 -84 13 -117 32 -82 5 9 15 16 23 16 7 0 31 17 52 38 21
21 55 51 76 66 20 16 37 32 37 37 0 5 -39 9 -87 9 -68 0 -91 -4 -107 -17 -20
-17 -20 -17 -7 0 12 15 11 17 -3 17 -13 0 -16 -13 -16 -84z"/>
<path d="M1471 1278 c-31 -165 -57 -349 -77 -555 l-18 -181 30 -37 c16 -20 44
-58 62 -83 l32 -47 0 508 c0 279 -2 507 -4 507 -2 0 -13 -51 -25 -112z"/>
<path d="M122 1284 c-20 -14 -72 -92 -72 -107 0 -14 21 -6 42 15 22 22 62 97
55 104 -2 2 -13 -3 -25 -12z"/>
<path d="M876 1260 c3 -14 11 -32 16 -40 6 -10 7 -7 2 10 -3 14 -11 32 -16 40
-6 10 -7 7 -2 -10z"/>
<path d="M25 1215 c-22 -17 -27 -26 -19 -35 9 -9 17 -4 34 20 28 40 22 46 -15
15z"/>
<path d="M802 1040 c1 -57 2 -67 8 -40 4 19 8 28 9 19 0 -9 4 -31 7 -48 5 -24
3 -31 -10 -31 -9 0 -16 6 -16 13 0 8 -3 9 -8 1 -13 -20 -51 -23 -63 -6 -8 14
-9 14 -4 -4 4 -17 0 -23 -17 -26 -13 -3 -31 -9 -40 -13 -15 -6 -18 -1 -20 36
l-1 44 -4 -40 c-3 -22 -8 -44 -13 -49 -5 -5 -6 -15 -3 -23 5 -11 7 -11 17 1 6
8 31 16 56 17 37 3 45 0 44 -14 -1 -9 2 -17 7 -17 22 0 6 -18 -23 -28 -18 -5
-25 -10 -16 -11 12 -1 15 -6 11 -18 -6 -16 -4 -16 15 1 22 19 22 19 22 0 1
-29 64 -65 101 -57 30 6 31 7 26 49 -4 39 -2 44 15 44 11 0 28 -5 39 -10 13
-7 19 -7 19 0 0 5 -4 10 -8 10 -5 0 -18 9 -30 20 -12 12 -22 16 -22 10 0 -5
-11 -10 -25 -10 -27 0 -28 3 -19 38 5 16 14 22 35 22 34 0 48 17 17 22 -16 2
-26 16 -39 53 l-17 50 -2 -55 -2 -55 -23 90 -23 90 0 -75z m72 -85 c3 -8 1
-15 -4 -15 -6 0 -10 7 -10 15 0 8 2 15 4 15 2 0 6 -7 10 -15z m-44 -70 c0 -14
-2 -25 -4 -25 -2 0 -11 -2 -19 -5 -14 -6 -20 16 -11 43 7 23 34 13 34 -13z"/>
<path d="M1145 1046 c3 -27 5 -76 5 -109 0 -33 3 -57 7 -53 4 4 6 26 5 49 l-1
42 14 -32 c24 -53 27 -38 4 20 -11 28 -25 70 -30 92 -8 39 -8 39 -4 -9z"/>
<path d="M652 1030 c0 -14 2 -19 5 -12 2 6 2 18 0 25 -3 6 -5 1 -5 -13z"/>
<path d="M692 1030 c0 -14 2 -19 5 -12 2 6 2 18 0 25 -3 6 -5 1 -5 -13z"/>
<path d="M551 1014 c0 -11 3 -14 6 -6 3 7 2 16 -1 19 -3 4 -6 -2 -5 -13z"/>
<path d="M502 985 c0 -16 2 -22 5 -12 2 9 2 23 0 30 -3 6 -5 -1 -5 -18z"/>
<path d="M542 950 c0 -19 2 -27 5 -17 2 9 2 25 0 35 -3 9 -5 1 -5 -18z"/>
<path d="M287 911 c-4 -18 -7 -43 -6 -55 1 -11 5 -1 10 24 5 25 7 49 6 55 -2
5 -7 -5 -10 -24z"/>
<path d="M335 929 c-18 -7 -18 -8 -2 -8 13 -1 17 -6 13 -18 -3 -10 -8 -31 -12
-46 -6 -26 -7 -26 -20 -10 -13 16 -14 15 -8 -12 10 -48 32 -95 43 -95 14 0 14
11 1 47 l-10 28 20 -25 20 -25 -3 24 c-1 13 4 26 11 28 8 3 12 -5 12 -24 0
-21 8 -32 31 -45 45 -26 59 -23 59 12 0 18 6 33 15 36 8 4 15 10 15 16 0 5 -4
7 -8 4 -5 -3 -8 3 -8 12 0 55 -5 71 -18 66 -8 -3 -28 2 -45 10 -16 9 -40 16
-53 16 -23 -1 -23 -1 -3 -16 11 -8 36 -17 57 -21 21 -3 38 -11 38 -18 0 -8 -9
-11 -22 -9 -18 4 -16 1 7 -11 27 -14 28 -15 5 -10 -14 2 -30 5 -36 5 -7 0 -15
10 -19 23 -6 19 -8 19 -12 5 -2 -10 -11 -18 -18 -18 -7 0 -20 -3 -28 -6 -13
-5 -14 1 -6 37 12 51 10 59 -16 48z"/>
<path d="M690 855 c0 -8 8 -11 20 -8 11 3 20 7 20 8 0 1 -9 5 -20 8 -12 3 -20
0 -20 -8z"/>
<path d="M1168 836 c-15 -11 -18 -28 -17 -92 1 -55 4 -70 8 -49 4 17 6 52 3
79 -4 39 -2 47 9 41 8 -5 11 -5 7 0 -4 4 -3 14 3 22 14 16 9 16 -13 -1z"/>
<path d="M1192 665 c-16 -21 -35 -34 -41 -31 -7 5 -11 -6 -11 -31 0 -21 4 -33
8 -27 10 16 51 12 63 -6 7 -11 8 -8 3 11 -3 16 1 39 11 58 10 21 13 37 7 47
-7 13 -14 10 -40 -21z"/>
<path d="M1234 507 c9 -27 -4 -73 -15 -55 -6 8 -9 -3 -10 -32 l-1 -45 -14 35
c-22 53 -30 65 -46 68 -9 2 -18 -6 -21 -19 -3 -11 -10 -18 -16 -14 -12 7 -17
3 -78 -52 -38 -33 -45 -47 -57 -108 -9 -38 -24 -95 -36 -125 l-20 -55 6 50 c4
28 8 82 9 120 2 39 6 86 9 105 l6 35 -16 -40 c-9 -22 -22 -60 -29 -85 -10 -35
-13 -39 -14 -19 -1 26 -2 27 -43 17 -53 -11 -104 -3 -112 19 -6 14 -13 11 -44
-19 -43 -41 -218 -146 -245 -148 -4 0 -7 48 -7 107 1 207 -1 224 -14 143 -6
-33 -9 -36 -43 -38 -20 -2 -40 -5 -45 -8 -4 -3 -8 0 -8 5 0 21 -15 10 -29 -20
-7 -16 -15 -28 -17 -26 -2 2 -5 34 -5 71 -2 128 -11 57 -12 -102 l-2 -160 22
82 c12 44 22 90 23 100 0 37 9 10 25 -83 9 -54 12 -98 7 -103 -4 -4 -42 -15
-83 -22 -92 -17 -207 -57 -213 -74 -4 -9 145 -12 724 -12 l730 0 0 100 c0 78
-3 102 -14 106 -8 3 -39 47 -70 98 -43 72 -65 99 -101 122 -26 16 -56 45 -67
64 -10 19 -17 27 -14 17z m-804 -297 c0 -67 -3 -80 -16 -80 -17 0 -16 19 3
128 9 52 13 37 13 -48z"/>
<path d="M810 360 c-19 -11 -31 -19 -27 -20 11 0 67 29 67 35 0 7 -1 7 -40
-15z"/>
<path d="M1440 347 c0 -2 13 -28 30 -58 18 -33 30 -46 30 -35 0 11 -12 37 -26
58 -24 34 -34 44 -34 35z"/>
<path d="M50 270 c0 -5 5 -10 10 -10 6 0 10 5 10 10 0 6 -4 10 -10 10 -5 0
-10 -4 -10 -10z"/>
<path d="M160 160 c0 -5 16 -10 35 -10 19 0 35 5 35 10 0 6 -16 10 -35 10 -19
0 -35 -4 -35 -10z"/>
</g>
</svg>
